ply
format ascii 1.0
element vertex 92
property float x
property float y
property float z
end_header
0.088200 0.015154 0.055011
0.000000 0.000000 0.000000
0.001426 -0.001764 0.000235
0.002039 -0.000646 0.000282
0.000635 -0.000755 -0.000693
0.001381 0.000785 -0.000229
0.001408 0.000013 -0.000778
0.000852 0.000461 -0.001109
0.001756 0.000703 -0.000266
0.007337 -0.001605 -0.000418
0.066279 0.000294 0.002561
0.105870 0.000566 0.008001
0.157056 0.002045 0.017770
0.235869 0.011929 0.040686
0.266763 0.019290 0.051753
0.301748 0.024148 0.067391
0.379574 0.033227 0.111638
0.423206 0.043362 0.141613
0.452760 0.051356 0.165889
0.504526 0.064924 0.215411
0.548847 0.079817 0.268069
0.587051 0.092350 0.325665
0.621950 0.111397 0.392134
0.659249 0.139450 0.503875
0.673458 0.157318 0.579658
0.679168 0.170621 0.657795
0.674908 0.186620 0.710767
0.671074 0.193132 0.748261
0.000000 0.000000 0.000000
0.000000 0.000000 0.000000
0.000000 0.000000 0.000000
0.000000 0.000000 0.000000
0.000000 0.000000 0.000000
0.000000 0.000000 0.000000
0.000000 0.000000 0.000000
0.000000 0.000000 0.000000
0.000000 0.000000 0.000000
0.000000 0.000000 0.000000
0.000000 0.000000 0.000000
0.000000 0.000000 0.000000
0.000000 0.000000 0.000000
0.000000 0.000000 0.000000
0.000000 0.000000 0.000000
0.000000 0.000000 0.000000
0.000000 0.000000 0.000000
0.000000 0.000000 0.000000
0.000000 0.000000 0.000000
0.000000 0.000000 0.000000
0.000000 0.000000 0.000000
0.000000 0.000000 0.000000
0.000000 0.000000 0.000000
0.000000 0.000000 0.000000
0.000000 0.000000 0.000000
0.000000 0.000000 0.000000
0.000000 0.000000 0.000000
0.000000 0.000000 0.000000
0.000000 0.000000 0.000000
0.000000 0.000000 0.000000
0.000000 0.000000 0.000000
0.000000 0.000000 0.000000
0.000000 0.000000 0.000000
0.000000 0.000000 0.000000
0.000000 0.000000 0.000000
0.000000 0.000000 0.000000
0.000000 0.000000 0.000000
0.000000 0.000000 0.000000
0.000000 0.000000 0.000000
0.000000 0.000000 0.000000
0.000000 0.000000 0.000000
0.000000 0.000000 0.000000
0.000000 0.000000 0.000000
0.000000 0.000000 0.000000
0.000000 0.000000 0.000000
0.000000 0.000000 0.000000
0.000000 0.000000 0.000000
0.000000 0.000000 0.000000
0.000000 0.000000 0.000000
0.000000 0.000000 0.000000
0.000000 0.000000 0.000000
0.000000 0.000000 0.000000
0.000000 0.000000 0.000000
0.000000 0.000000 0.000000
0.000000 0.000000 0.000000
0.000000 0.000000 0.000000
0.000000 0.000000 0.000000
0.000000 0.000000 0.000000
0.000000 0.000000 0.000000
0.000000 0.000000 0.000000
0.000000 0.000000 0.000000
0.000000 0.000000 0.000000
0.000000 0.000000 0.000000
0.000000 0.000000 0.000000
