ply
format ascii 1.0
element vertex 112
property float x
property float y
property float z
end_header
0.209535 0.048227 0.424407
0.000000 0.000000 0.000000
-0.000224 -0.000371 -0.000331
-0.000053 -0.000214 -0.000394
-0.000054 -0.000245 0.000064
0.001723 -0.000639 -0.000855
0.003591 -0.001235 -0.000142
0.005877 -0.001734 -0.000285
0.008885 -0.002426 0.000381
0.013711 -0.002468 -0.000156
0.026571 -0.003835 0.000301
0.037965 -0.005047 0.002169
0.065781 -0.005328 0.002477
0.103796 -0.007220 0.005760
0.149961 -0.009113 0.012871
0.194082 -0.009542 0.022130
0.231487 -0.010859 0.031559
0.260520 -0.010615 0.040812
0.303344 -0.015802 0.056481
0.328686 -0.014953 0.066847
0.353669 -0.014821 0.077606
0.381031 -0.013716 0.090466
0.413118 -0.011696 0.107822
0.443723 -0.010958 0.124923
0.473859 -0.010722 0.144635
0.529498 -0.012163 0.186895
0.557375 -0.009395 0.209345
0.589711 -0.007267 0.238615
0.621605 -0.003716 0.271403
0.655201 -0.001462 0.309827
0.686240 -0.000351 0.351318
0.714060 0.003085 0.391209
0.769911 0.004394 0.502275
0.789236 0.011281 0.544242
0.804858 0.017868 0.587266
0.818434 0.024585 0.629609
0.829111 0.031995 0.671605
0.835913 0.037011 0.707891
0.842278 0.044639 0.754550
0.847807 0.054908 0.848956
0.846338 0.064619 0.899885
0.843093 0.073592 0.946673
0.835165 0.083705 1.002821
0.823062 0.094774 1.059847
0.808244 0.103363 1.113389
0.762994 0.128309 1.224346
0.732769 0.139721 1.279184
0.690548 0.155111 1.343257
0.651691 0.165363 1.392041
0.616556 0.173967 1.430952
0.577150 0.182448 1.468541
0.462170 0.201123 1.558482
0.424209 0.209232 1.580527
0.383069 0.216571 1.601598
0.333615 0.224262 1.623135
0.276127 0.233069 1.644051
0.220310 0.243338 1.659117
0.135846 0.257426 1.674259
0.062890 0.264988 1.680242
0.001405 0.267691 1.680732
-0.063806 0.268058 1.675766
-0.130917 0.265923 1.666269
-0.192838 0.263742 1.652886
-0.250511 0.261704 1.634524
-0.355515 0.268169 1.585981
-0.431685 0.260324 1.543153
-0.495872 0.250735 1.497395
0.000000 0.000000 0.000000
0.000000 0.000000 0.000000
0.000000 0.000000 0.000000
0.000000 0.000000 0.000000
0.000000 0.000000 0.000000
0.000000 0.000000 0.000000
0.000000 0.000000 0.000000
0.000000 0.000000 0.000000
0.000000 0.000000 0.000000
0.000000 0.000000 0.000000
0.000000 0.000000 0.000000
0.000000 0.000000 0.000000
0.000000 0.000000 0.000000
0.000000 0.000000 0.000000
0.000000 0.000000 0.000000
0.000000 0.000000 0.000000
0.000000 0.000000 0.000000
0.000000 0.000000 0.000000
0.000000 0.000000 0.000000
0.000000 0.000000 0.000000
0.000000 0.000000 0.000000
0.000000 0.000000 0.000000
0.000000 0.000000 0.000000
0.000000 0.000000 0.000000
0.000000 0.000000 0.000000
0.000000 0.000000 0.000000
0.000000 0.000000 0.000000
0.000000 0.000000 0.000000
0.000000 0.000000 0.000000
0.000000 0.000000 0.000000
0.000000 0.000000 0.000000
0.000000 0.000000 0.000000
0.000000 0.000000 0.000000
0.000000 0.000000 0.000000
0.000000 0.000000 0.000000
0.000000 0.000000 0.000000
0.000000 0.000000 0.000000
0.000000 0.000000 0.000000
0.000000 0.000000 0.000000
0.000000 0.000000 0.000000
0.000000 0.000000 0.000000
0.000000 0.000000 0.000000
0.000000 0.000000 0.000000
0.000000 0.000000 0.000000
0.000000 0.000000 0.000000
